<svg xmlns="http://www.w3.org/2000/svg" viewBox="0 0 240 80" width="240" height="80">
	<style>
		tspan { white-space:pre }
		.shp0 { fill: #ffffff } 
		.shp1 { fill: none;stroke: #ffffff;stroke-width: 3.503 } 
		.shp2 { fill: none;stroke: #ffffff;stroke-linecap:round;stroke-width: 4 } 
	</style>
	<g id="Layer">
		<g id="Layer">
			<g id="Layer">
				<g id="Layer">
					<g id="Layer">
						<path id="Layer" class="shp0" d="M119.3,63.72c-0.58,-0.63 -1.64,-1.22 -3.19,-1.77c-0.92,-0.33 -1.61,-0.63 -2.05,-0.9c-0.45,-0.27 -0.77,-0.57 -0.95,-0.9c-0.19,-0.33 -0.28,-0.74 -0.28,-1.25c0,-0.69 0.26,-1.23 0.77,-1.62c0.51,-0.39 1.22,-0.59 2.13,-0.59c1.15,0 2.33,0.25 3.55,0.77l0.53,-1.49c-1.23,-0.54 -2.58,-0.81 -4.04,-0.81c-1.41,0 -2.53,0.34 -3.39,1.01c-0.85,0.67 -1.28,1.58 -1.28,2.71c0,1.08 0.29,1.96 0.88,2.63c0.59,0.67 1.57,1.25 2.94,1.74c0.98,0.35 1.71,0.66 2.19,0.94c0.48,0.27 0.82,0.58 1.03,0.9c0.2,0.33 0.31,0.75 0.31,1.26c0,0.77 -0.29,1.38 -0.87,1.81c-0.58,0.43 -1.44,0.65 -2.58,0.65c-0.7,0 -1.4,-0.07 -2.12,-0.22c-0.71,-0.15 -1.37,-0.35 -1.97,-0.61v1.65c0.94,0.45 2.28,0.68 4.03,0.68c1.61,0 2.89,-0.36 3.83,-1.09c0.94,-0.73 1.41,-1.74 1.41,-3.03c0,-1.01 -0.29,-1.83 -0.87,-2.46z" />
						<path id="Layer" class="shp0" d="M128.08,70.31c-0.72,0 -1.37,-0.13 -1.97,-0.4c-0.59,-0.27 -1.09,-0.67 -1.5,-1.22h-0.12c0.08,0.64 0.12,1.26 0.12,1.83v4.55h-1.67v-16.01h1.36l0.23,1.51h0.08c0.43,-0.6 0.93,-1.04 1.5,-1.31c0.57,-0.27 1.23,-0.4 1.97,-0.4c1.47,0 2.6,0.5 3.39,1.5c0.8,1 1.19,2.41 1.19,4.21c0,1.81 -0.41,3.22 -1.22,4.23c-0.81,1 -1.93,1.51 -3.37,1.51zM127.84,60.28c-1.13,0 -1.95,0.31 -2.45,0.94c-0.5,0.63 -0.76,1.62 -0.78,2.98v0.37c0,1.55 0.26,2.66 0.78,3.33c0.52,0.67 1.35,1 2.49,1c0.95,0 1.7,-0.39 2.24,-1.16c0.54,-0.77 0.81,-1.84 0.81,-3.19c0,-1.38 -0.27,-2.44 -0.81,-3.17c-0.54,-0.74 -1.3,-1.1 -2.28,-1.1z" />
						<path id="Layer" class="shp0" d="M142.39,70.1l-0.33,-1.57h-0.08c-0.55,0.69 -1.1,1.16 -1.65,1.41c-0.55,0.25 -1.23,0.37 -2.05,0.37c-1.09,0 -1.95,-0.28 -2.57,-0.85c-0.62,-0.56 -0.93,-1.37 -0.93,-2.41c0,-2.23 1.78,-3.4 5.35,-3.51l1.88,-0.06v-0.69c0,-0.87 -0.19,-1.51 -0.56,-1.92c-0.37,-0.41 -0.97,-0.62 -1.79,-0.62c-0.92,0 -1.96,0.28 -3.12,0.85l-0.51,-1.28c0.54,-0.3 1.14,-0.53 1.79,-0.7c0.65,-0.17 1.3,-0.25 1.95,-0.25c1.32,0 2.29,0.29 2.93,0.88c0.64,0.59 0.95,1.52 0.95,2.81v7.54h-1.24zM138.61,68.93c1.04,0 1.86,-0.29 2.45,-0.86c0.59,-0.57 0.89,-1.37 0.89,-2.4v-1l-1.67,0.07c-1.33,0.05 -2.29,0.25 -2.88,0.62c-0.59,0.37 -0.88,0.94 -0.88,1.71c0,0.61 0.18,1.06 0.55,1.38c0.37,0.32 0.88,0.47 1.54,0.47z" />
						<path id="Layer" class="shp0" d="M147.22,56.9c0.19,0.18 0.42,0.28 0.71,0.28c0.27,0 0.5,-0.09 0.69,-0.28c0.19,-0.19 0.29,-0.46 0.29,-0.84c0,-0.38 -0.1,-0.66 -0.29,-0.84c-0.19,-0.18 -0.43,-0.27 -0.69,-0.27c-0.28,0 -0.52,0.09 -0.71,0.27c-0.19,0.18 -0.28,0.46 -0.28,0.84c0,0.38 0.09,0.66 0.28,0.84zM148.75,59.06h-1.67v11.05h1.67z" />
						<path id="Layer" class="shp0" d="M159.86,70.11h1.67v-7.21c0,-1.41 -0.34,-2.44 -1.01,-3.08c-0.67,-0.64 -1.67,-0.96 -3,-0.96c-0.76,0 -1.45,0.15 -2.07,0.45c-0.62,0.3 -1.1,0.72 -1.44,1.27h-0.08l-0.27,-1.51h-1.36v11.05h1.67v-5.8c0,-1.44 0.27,-2.47 0.81,-3.09c0.54,-0.63 1.38,-0.94 2.54,-0.94c0.87,0 1.52,0.22 1.93,0.66c0.41,0.44 0.62,1.12 0.62,2.02v7.15z" />
						<path id="2019 " fill="#ffffff" d="M176.67 68.57L176.67 70.12L166.89 70.12L166.89 68.76L172.06 63.01Q173.21 61.71 173.64 60.9Q174.08 60.08 174.08 59.21Q174.08 58.04 173.37 57.29Q172.66 56.54 171.48 56.54Q170.07 56.54 169.28 57.35Q168.5 58.15 168.5 59.59L166.6 59.59Q166.6 57.53 167.92 56.26Q169.26 54.98 171.48 54.98Q173.56 54.98 174.77 56.08Q175.98 57.17 175.98 58.98Q175.98 61.19 173.17 64.23L169.18 68.57L176.67 68.57ZM188.04 61.29L188.04 63.75Q188.04 67.08 186.9 68.7Q185.77 70.32 183.35 70.32Q180.96 70.32 179.81 68.75Q178.66 67.16 178.62 64.01L178.62 61.48Q178.62 58.18 179.76 56.58Q180.9 54.98 183.33 54.98Q185.74 54.98 186.87 56.53Q188.01 58.07 188.04 61.29ZM186.15 64.26L186.15 61.16Q186.15 58.75 185.47 57.65Q184.79 56.54 183.33 56.54Q181.87 56.54 181.2 57.64Q180.54 58.74 180.52 61.01L180.52 64.05Q180.52 66.47 181.21 67.63Q181.92 68.78 183.35 68.78Q184.75 68.78 185.43 67.69Q186.12 66.6 186.15 64.26ZM196.71 55.12L196.71 70.12L194.8 70.12L194.8 57.48L190.98 58.88L190.98 57.16L196.41 55.12L196.71 55.12ZM209.54 63.56Q208.94 64.26 208.11 64.69Q207.29 65.13 206.31 65.13Q205.01 65.13 204.05 64.49Q203.1 63.85 202.57 62.71Q202.05 61.55 202.05 60.15Q202.05 58.66 202.61 57.46Q203.19 56.26 204.23 55.62Q205.28 54.98 206.67 54.98Q208.89 54.98 210.16 56.65Q211.44 58.3 211.44 61.16L211.44 61.71Q211.44 66.07 209.72 68.08Q208 70.08 204.52 70.13L204.15 70.13L204.15 68.53L204.55 68.53Q206.9 68.49 208.16 67.31Q209.42 66.12 209.54 63.56ZM206.61 63.56Q207.57 63.56 208.37 62.97Q209.18 62.39 209.55 61.53L209.55 60.77Q209.55 58.9 208.74 57.73Q207.93 56.56 206.68 56.56Q205.43 56.56 204.67 57.53Q203.92 58.48 203.92 60.05Q203.92 61.58 204.64 62.57Q205.38 63.56 206.61 63.56Z" />
					</g>
					<g id="Layer">
						<path id="Layer" class="shp0" d="M133.48,47.82v-4.45h-18.66v-37.83h-4.92v42.28z" />
						<path id=" " fill="#ffffff" d="" />
						<path id="Layer" class="shp0" d="M167.23,47.82l-5.26,-13.45h-16.94l-5.21,13.45h-4.97l16.72,-42.45h4.13l16.63,42.45zM155.51,16.85c-0.64,-1.66 -1.29,-3.69 -1.97,-6.1c-0.43,1.85 -1.03,3.89 -1.82,6.1l-4.97,13.1h13.68z" />
						<path id="Layer" class="shp0" d="M199.48,29.52c-1.67,-1.81 -4.72,-3.51 -9.15,-5.09c-2.64,-0.94 -4.6,-1.81 -5.88,-2.59c-1.28,-0.78 -2.19,-1.64 -2.73,-2.57c-0.54,-0.93 -0.81,-2.14 -0.81,-3.6c0,-1.98 0.73,-3.54 2.2,-4.66c1.47,-1.12 3.5,-1.68 6.1,-1.68c3.3,0 6.69,0.73 10.18,2.2l1.53,-4.28c-3.53,-1.54 -7.39,-2.31 -11.6,-2.31c-4.03,0 -7.27,0.96 -9.72,2.89c-2.45,1.93 -3.67,4.52 -3.67,7.78c0,3.11 0.84,5.62 2.53,7.55c1.69,1.93 4.5,3.6 8.43,5c2.81,1 4.91,1.9 6.29,2.69c1.38,0.79 2.36,1.65 2.95,2.59c0.59,0.94 0.88,2.14 0.88,3.6c0,2.22 -0.83,3.95 -2.49,5.19c-1.66,1.24 -4.13,1.87 -7.4,1.87c-2,0 -4.03,-0.21 -6.07,-0.64c-2.05,-0.42 -3.93,-1 -5.67,-1.73v4.74c2.7,1.29 6.55,1.94 11.57,1.94c4.63,0 8.29,-1.04 10.99,-3.12c2.7,-2.08 4.05,-4.98 4.05,-8.7c0,-2.89 -0.83,-5.24 -2.5,-7.06z" />
						<path id="Layer" class="shp0" d="M215.55,47.82v-42.28h-4.92v42.28z" />
					</g>
				</g>
				<g id="Layer">
					<path id="Layer" class="shp1" d="M88.25,40c0,-19.49 -15.76,-35.25 -35.25,-35.25c-19.49,0 -35.25,15.76 -35.25,35.25c0,19.49 15.76,35.25 35.25,35.25c19.49,0 35.25,-15.76 35.25,-35.25z" />
					<path id="Layer" class="shp1" d="M66.35,40c0,-19.49 -5.97,-35.25 -13.35,-35.25c-7.38,0 -13.35,15.76 -13.35,35.25c0,19.49 5.97,35.25 13.35,35.25c7.38,0 13.35,-15.76 13.35,-35.25z" />
					<path id="Layer" class="shp1" d="M79.62,40c0,-19.49 -11.9,-35.25 -26.62,-35.25c-14.72,0 -26.62,15.76 -26.62,35.25c0,19.49 11.9,35.25 26.62,35.25c14.72,0 26.62,-15.76 26.62,-35.25z" />
					<path id="Layer" class="shp2" d="M53,74v-68" />
					<path id="Layer" class="shp2" d="M87,40h-68" />
					<path id="Layer" class="shp2" d="M23,58h60" />
					<path id="Layer" class="shp2" d="M23,22h60" />
				</g>
			</g>
		</g>
	</g>
</svg>